<svg width="192px" height="133px" viewBox="-7 -5 192 133" version="1.1" xmlns="http://www.w3.org/2000/svg" xmlns:xlink="http://www.w3.org/1999/xlink">
    <!-- Generator: Sketch 3.7.2 (28276) - http://www.bohemiancoding.com/sketch -->
    <desc>Created with Sketch.</desc>
    <defs></defs>
    <rect id="Rectangle-193" stroke="none" fill="#334185" fill-rule="evenodd" x="-7" y="-5" width="192" height="133"></rect>
    <g id="Bed_Bath__and__Beyond" stroke="none" stroke-width="1" fill="none" fill-rule="evenodd" transform="translate(27.000000, 46.000000)">
        <path d="M0,25 L7.07248007,25 C10.3075332,25 13.6112585,25.7046355 13.6112585,29.2106449 C13.6112585,30.5407936 12.8790049,31.8507886 11.4159905,32.2747642 L11.4159905,32.3964332 C13.2343084,32.9801461 14.3875518,34.1886258 14.3875518,36.0017186 C14.3875518,39.1262992 11.1950455,40.1951954 8.26827037,40.1951954 L0,40.1951954 L0,25 L0,25 Z M6.18422136,30.8431002 C7.07248007,30.8431002 8.06971842,30.7632315 8.06971842,29.7144891 C8.06971842,28.5873709 6.93812161,28.6672395 6.05210221,28.6672395 L5.63111236,28.6672395 L5.63111236,30.8431002 L6.18422136,30.8431002 L6.18422136,30.8431002 Z M5.63111236,36.567517 L6.31708695,36.567517 C7.31507173,36.567517 8.75569301,36.5473632 8.75569301,35.2970831 C8.75569301,34.0281421 7.20534566,34.0490423 6.22900751,34.0490423 L5.63111236,34.0490423 L5.63111236,36.567517 L5.63111236,36.567517 Z" id="Fill-26" fill="#FFFFFF"></path>
        <polyline id="Fill-27" fill="#FFFFFF" points="15 25 27.2617024 25 27.2617024 29.15093 21.6746297 29.15093 21.6746297 30.6020014 26.7780119 30.6020014 26.7780119 34.5521401 21.6746297 34.5521401 21.6746297 36.043519 27.4535364 36.043519 27.4535364 40.1951954 15 40.1951954 15 25"></polyline>
        <path d="M36.4332327,25 L38.718073,28.9695461 L38.9367787,28.9695461 C39.1532451,28.4858556 39.3428398,28.0021652 39.6160353,27.5386285 L41.0857676,25 L49.4637641,25 L42.4450274,33.6444741 L42.4450274,40.1951954 L35.154588,40.1951954 L35.154588,33.6444741 L28,25 L36.4332327,25" id="Fill-28" fill="#FFFFFF"></path>
        <path d="M70.3688925,32.8808701 C70.3688925,37.7580823 64.9049818,40.6788859 58.1840731,40.6788859 C51.4639107,40.6788859 46,37.7580823 46,32.8808701 C46,28.1044269 51.4937682,25 58.1840731,25 C64.8751244,25 70.3688925,28.1044269 70.3688925,32.8808701 L70.3688925,32.8808701 Z M54.0637469,32.9622317 C54.0637469,34.6947094 55.7589028,35.8830353 58.1840731,35.8830353 C60.6099897,35.8830353 62.3036527,34.6947094 62.3036527,32.9622317 C62.3036527,31.3491837 60.7264337,29.9996276 58.1840731,29.9996276 C55.6424588,29.9996276 54.0637469,31.3491837 54.0637469,32.9622317 L54.0637469,32.9622317 Z" id="Fill-29" fill="#FFFFFF"></path>
        <path d="M96,25 L108.649103,25 C120.119583,25 128.91633,27.2355755 128.91633,32.8181695 C128.91633,37.3318674 121.752038,40.1951954 111.731136,40.1951954 L96,40.1951954 L96,25 L96,25 Z M108.422186,35.6396972 L109.193254,35.6396972 C113.318059,35.6396972 116.491905,34.7932389 116.491905,32.7987622 C116.491905,30.6617162 113.72636,29.7562895 109.193254,29.7562895 L108.422186,29.7562895 L108.422186,35.6396972 L108.422186,35.6396972 Z" id="Fill-30" fill="#FFFFFF"></path>
        <path d="M127,25.0235877 C127,23.8979624 127.897216,23 129.034038,23 C130.17086,23 131.068076,23.8979624 131.068076,25.0235877 C131.068076,26.1499595 130.17086,27.0471754 129.034038,27.0471754 C127.897216,27.0471754 127,26.1499595 127,25.0235877 L127,25.0235877 Z M130.757558,25.0235877 C130.757558,24.0688962 129.962604,23.3112638 129.034038,23.3112638 C128.104725,23.3112638 127.311264,24.0688962 127.311264,25.0235877 C127.311264,25.9790256 128.104725,26.7366581 129.034038,26.7366581 C129.962604,26.7366581 130.757558,25.9790256 130.757558,25.0235877 L130.757558,25.0235877 Z M129.999926,26.1186092 L129.625961,26.1186092 L128.96238,25.0967384 L128.588416,25.0967384 L128.588416,26.1186092 L128.277152,26.1186092 L128.277152,23.902441 L129.242293,23.902441 C129.64089,23.902441 130.03053,24.0121671 130.03053,24.4891396 C130.03053,24.9250582 129.724491,25.0870348 129.330373,25.0967384 L129.999926,26.1186092 L129.999926,26.1186092 Z M128.96238,24.7854747 C129.237815,24.7854747 129.720012,24.8369787 129.720012,24.484661 C129.720012,24.2562516 129.419199,24.2144512 129.178846,24.2144512 L128.588416,24.2144512 L128.588416,24.7854747 L128.96238,24.7854747 L128.96238,24.7854747 Z" id="Fill-31" fill="#FFFFFF"></path>
        <polyline id="Fill-33" fill="#FFFFFF" points="79.2137805 25 71 25 71 40.1951954 79.1831767 40.1951954 79.1831767 32.4651053 86.4295763 40.1951954 94.6134994 40.1951954 94.6134994 25 86.4295763 25 86.4295763 32.8756451 79.2137805 25"></polyline>
        <path d="M0,1 L2.45502765,1 C6.2454291,1 9.81936415,1.98753468 9.81936415,6.52437203 C9.81936415,7.99111856 9.01918487,9.69896388 7.65917868,10.3401523 L7.65917868,10.3931493 C10.0335913,10.820857 11.6876932,13.1415262 11.6876932,15.49056 C11.6876932,19.5198209 8.24587729,21.1209259 4.69657463,21.1209259 L0,21.1209259 L0,1 L0,1 Z M2.50877103,9.91319098 L3.14772015,9.91319098 C5.52437203,9.91319098 7.47256971,9.43248626 7.47256971,6.54975085 C7.47256971,3.72150526 5.54975085,3.24229342 3.20295641,3.24229342 L2.50877103,3.24229342 L2.50877103,9.91319098 L2.50877103,9.91319098 Z M2.50877103,18.8793789 L4.42935058,18.8793789 C6.75151264,18.8793789 9.18041503,18.18594 9.18041503,15.3308227 C9.18041503,12.5018306 6.29767962,11.9136392 4.0553862,11.9136392 L2.50877103,11.9136392 L2.50877103,18.8793789 L2.50877103,18.8793789 Z" id="Fill-34" fill="#FFFFFF"></path>
        <polyline id="Fill-35" fill="#FFFFFF" points="13 1 23.8083917 1 23.8083917 3.29454393 15.508771 3.29454393 15.508771 8.92565629 23.5672929 8.92565629 23.5672929 11.2209467 15.508771 11.2209467 15.508771 18.8271284 23.8083917 18.8271284 23.8083917 21.1209259 13 21.1209259 13 1"></polyline>
        <path d="M26,1 L30.162873,1 C36.327687,1 41.4519694,4.25520692 41.4519694,10.9537226 C41.4519694,17.8119756 36.4344273,21.1209259 30.0830043,21.1209259 L26,21.1209259 L26,1 L26,1 Z M28.508771,18.8271284 L29.3895654,18.8271284 C34.5123549,18.8271284 38.9431984,16.9043095 38.9431984,11.0612094 C38.9431984,5.18974466 34.5123549,3.29454393 29.3895654,3.29454393 L28.508771,3.29454393 L28.508771,18.8271284 L28.508771,18.8271284 Z" id="Fill-36" fill="#FFFFFF"></path>
        <path d="M49,1 L51.4557741,1 C55.2446827,1 58.820857,1.98753468 58.820857,6.52437203 C58.820857,7.99111856 58.0199313,9.69896388 56.6591787,10.3401523 L56.6591787,10.3931493 C59.0350841,10.820857 60.6884396,13.1415262 60.6884396,15.49056 C60.6884396,19.5198209 57.2466237,21.1209259 53.6973211,21.1209259 L49,21.1209259 L49,1 L49,1 Z M51.508771,9.91319098 L52.149213,9.91319098 C54.524372,9.91319098 56.4718233,9.43248626 56.4718233,6.54975085 C56.4718233,3.72150526 54.5512437,3.24229342 52.20221,3.24229342 L51.508771,3.24229342 L51.508771,9.91319098 L51.508771,9.91319098 Z M51.508771,18.8793789 L53.4308435,18.8793789 C55.7522591,18.8793789 58.1796686,18.18594 58.1796686,15.3308227 C58.1796686,12.5018306 55.2991725,11.9136392 53.0568791,11.9136392 L51.508771,11.9136392 L51.508771,18.8793789 L51.508771,18.8793789 Z" id="Fill-37" fill="#FFFFFF"></path>
        <path d="M64.9906704,15.9311812 L62.69538,20.975595 L60,20.975595 L69.6066299,0 L79.2140063,20.975595 L76.5178798,20.975595 L74.2233359,15.9311812 L64.9906704,15.9311812 L64.9906704,15.9311812 Z M69.6066299,5.49824678 L66.0304556,13.6366373 L73.1835507,13.6366373 L69.6066299,5.49824678 L69.6066299,5.49824678 Z" id="Fill-38" fill="#FFFFFF"></path>
        <polyline id="Fill-39" fill="#FFFFFF" points="84.2852143 21.1209259 81.7764433 21.1209259 81.7764433 3.29454393 77 3.29454393 77 1 89.0609111 1 89.0609111 3.29454393 84.2852143 3.29454393 84.2852143 21.1209259"></polyline>
        <polyline id="Fill-40" fill="#FFFFFF" points="102.087783 9.1130117 102.087783 1 104.596554 1 104.596554 21.1209259 102.087783 21.1209259 102.087783 11.4598061 92.5080246 11.4598061 92.5080246 21.1209259 90 21.1209259 90 1 92.5080246 1 92.5080246 9.1130117 102.087783 9.1130117"></polyline>
        <path d="M123.196016,17.8248891 C121.67478,19.612603 119.539227,20.9741021 117.164814,20.9741021 C113.802867,20.9741021 111,18.5198209 111,15.0503869 C111,12.487126 112.601105,11.1002481 114.523177,9.71337025 L115.777936,8.80570421 C114.630664,7.60394242 113.563261,6.11032421 113.563261,4.40173245 C113.563261,1.62648381 115.563709,0 118.205346,0 C120.66112,0 122.848923,1.54661517 122.848923,4.18899822 C122.848923,6.45667046 120.873854,7.97790681 119.19288,9.20579385 L123.382625,14.2755864 L125.731659,11.5540812 L127.332764,13.2081831 L124.87699,16.0909185 L128.480036,20.5471408 L125.384566,20.5471408 L123.196016,17.8248891 L123.196016,17.8248891 Z M117.005077,10.7807736 C115.618199,11.7414366 113.349034,13.1006963 113.349034,15.0235152 C113.349034,16.9440947 115.162873,18.7325551 117.084945,18.7325551 C118.953274,18.7325551 120.446893,17.3180591 121.701651,16.0640468 L117.245429,10.6195434 L117.005077,10.7807736 L117.005077,10.7807736 Z M118.100098,7.25759617 C119.113012,6.45667046 120.501382,5.62887306 120.501382,4.16212653 C120.501382,2.74763052 119.486976,1.97283006 118.152349,1.97283006 C116.952826,1.97283006 115.910802,2.82824559 115.910802,4.10763671 C115.910802,5.12278952 116.524372,5.87071829 117.112564,6.61640774 L117.778384,7.47182327 L118.100098,7.25759617 L118.100098,7.25759617 Z" id="Fill-41" fill="#FFFFFF"></path>
    </g>
</svg>
