<svg width="192px" height="133px" viewBox="-7 -5 192 133" version="1.1" xmlns="http://www.w3.org/2000/svg" xmlns:xlink="http://www.w3.org/1999/xlink">
    <!-- Generator: Sketch 3.7.2 (28276) - http://www.bohemiancoding.com/sketch -->
    <desc>Created with Sketch.</desc>
    <defs></defs>
    <rect id="Rectangle-193" stroke="none" fill="#2478B1" fill-rule="evenodd" x="-7" y="-5" width="192" height="133"></rect>
    <g id="Dell-Logo" stroke="none" stroke-width="1" fill="none" fill-rule="evenodd" transform="translate(45.000000, 22.000000)">
        <path d="M33.6918588,6.40785827 C31.1200706,7.09906299 28.8133765,7.97728346 26.7226471,9.01511811 C20.3593647,12.1741772 15.1113882,16.6937244 11.4423765,22.4871024 C7.86070588,28.1421024 4.75975294,35.4161929 5.20874118,44.9553661 C5.49191765,50.9689843 6.85867059,56.027315 9.01797647,60.3392953 C13.2816588,68.8536496 19.7735647,75.1268976 28.7570824,78.9398268 C33.1998824,80.8250551 38.7047647,82.1475236 44.9036,81.8512441 C50.8496235,81.5669528 56.0020706,80.2253031 60.2705294,78.0705118 C68.6368588,73.8472441 75.2304353,67.3311496 78.8844353,58.3403504 C80.7329294,53.7927165 82.1303882,48.5384646 81.8281059,42.1737638 C81.2566353,30.1170709 76.3709882,21.941811 69.9241176,15.7076102 C66.7344588,12.6232205 62.8931529,9.99917717 58.3667647,8.10264567 C53.9748,6.26262992 48.2566824,4.8980315 42.1335882,5.19088583 C39.1230471,5.33474409 36.2834353,5.71083071 33.6918588,6.40785827 L33.6918588,6.40785827 Z M42.1765765,0.193181102 L44.8602706,0.193181102 C57.9147059,0.932338583 67.222,5.90846457 74.1229765,12.8831929 C81.0236118,19.8575787 86.1245412,29.0559449 86.8058706,42.2172638 L86.8058706,44.8248661 C86.1433059,58.1964921 80.9523059,67.0218543 74.1229765,74.2027795 C66.9487176,81.0237165 58.1293059,86.191311 44.8169412,86.8489488 L42.1765765,86.8489488 C29.1238471,86.1080787 19.8145059,81.1336654 12.9138706,74.1592795 C6.01323529,67.1845512 0.912305882,57.986185 0.230635294,44.8248661 L0.230635294,42.2172638 C0.264411765,42.2080157 0.281129412,42.1809567 0.273964706,42.1306063 C0.926635294,29.0192953 6.05554118,19.7250236 12.9142118,12.8393504 C19.8039294,5.92216535 29.2081176,0.909732283 42.1765765,0.193181102 L42.1765765,0.193181102 Z" id="Fill-1" fill="#FFFFFF"></path>
        <path d="M17.8919765,39.1753465 L17.8919765,45.6938386 C19.4388706,45.7017165 20.6149059,45.7917992 21.5278941,45.0858661 C22.8864588,44.0353583 23.1597412,41.4315236 21.9608471,40.0443189 C21.1607882,39.1188307 19.8097294,38.9242795 17.9349647,39.0448465 C17.8848118,39.0520394 17.8882235,39.1136929 17.8919765,39.1753465 L17.8919765,39.1753465 Z M39.5358706,32.2653543 C40.9074,33.1771417 42.3103176,34.0577598 43.6050824,35.0466142 C40.6801765,36.8903976 37.8129294,38.7920669 34.9044,40.6529764 C35.3458824,40.9917283 35.8480941,41.2698543 36.2895765,41.6089488 C39.2219882,39.7435866 42.1554235,37.8795945 45.0769176,36.0025866 C46.3866941,36.8167559 47.6770235,37.6511339 48.8864941,38.5670315 C45.9592,40.4231457 43.1298235,42.377563 40.2291412,44.2597087 C40.6586824,44.6107913 41.1854588,44.8639134 41.6569647,45.1725236 C44.6555647,43.3301102 47.5797882,41.4123425 50.5309647,39.5230039 L50.5309647,33.3518268 L57.0242353,33.3518268 L57.0242353,45.6503386 C58.8570353,45.7517244 60.8768,45.6650669 62.7815882,45.6938386 L62.7815882,51.4738583 L50.5309647,51.4738583 L50.5309647,45.6068386 C46.9315529,47.8023898 43.2434353,50.2849724 39.6225294,52.6038307 C35.8518471,50.1459094 32.2183176,47.5502953 28.4544588,45.0858661 C27.3640588,48.555248 24.7741882,51.1655906 20.4893529,51.4738583 C17.8165765,51.6660118 14.7801059,51.330685 11.7016706,51.4738583 L11.7016706,33.3518268 C15.5501412,33.607689 19.7756118,32.8349646 22.8267529,33.7864843 C25.5244353,34.6273701 27.4367294,36.7883268 28.3241294,39.4795039 C32.0910588,37.1044724 35.7972588,34.668815 39.5358706,32.2653543 L39.5358706,32.2653543 Z" id="Fill-2" fill="#FFFFFF"></path>
        <path d="M64.4697294,33.3518268 L70.963,33.3518268 L70.963,45.6938386 L76.6770235,45.6938386 L76.6770235,51.4738583 L64.4264,51.4738583 L64.4264,33.4823268 C64.4229882,33.4203307 64.4192353,33.3590197 64.4697294,33.3518268" id="Fill-3" fill="#FFFFFF"></path>
    </g>
</svg>
