<?xml version="1.0" encoding="UTF-8" standalone="no"?>
<svg width="119px" height="112px" viewBox="0 0 119 112" version="1.1" xmlns="http://www.w3.org/2000/svg" xmlns:xlink="http://www.w3.org/1999/xlink">
    <!-- Generator: Sketch 3.7.2 (28276) - http://www.bohemiancoding.com/sketch -->
    <title>Guarantee-Shield</title>
    <desc>Created with Sketch.</desc>
    <defs></defs>
    <g id="Template" stroke="none" stroke-width="1" fill="none" fill-rule="evenodd">
        <g id="Logos" transform="translate(-814.000000, -101.000000)">
            <g id="Raise-Logos" transform="translate(27.000000, 27.000000)">
                <g id="Raise-Guarantee-Shield" transform="translate(787.000000, 74.000000)">
                    <g id="Guarantee-Shield">
                        <g id="Group">
                            <path d="M30.3,61.1 C12.6,62.9 0.5,67.6 0.5,67.6 L6,82 L3.2,97.8 C3.2,97.8 12.7,93.1 30.2,91.3" id="Shape" fill="#1E3743"></path>
                            <polygon id="Shape" fill="#0D2837" points="30 91.5 10.8 86.9 30 81.2"></polygon>
                            <path d="M91,59.3 C108,61.1 118.7,65.8 118.7,65.8 L113.4,79 L116,96 C116,96 107.9,91.3 91.1,89.5" id="Shape" fill="#1E3743"></path>
                            <polygon id="Shape" fill="#0D2837" points="92 89.6 108.9 85.1 92 79.3"></polygon>
                            <path d="M110.2,14.5 L60.1,0.7 L10.1,14.5 C10.1,14.5 2.1,95.9 60.2,111.3 C118.2,96 110.2,14.5 110.2,14.5 L110.2,14.5 Z" id="Shape" fill="#57BD9E"></path>
                            <path d="M60.2,106 L59.4,105.8 C38.6,100.3 24.4,84 18.4,58.6 C14,39.9 15.6,23 15.6,22.3 L15.8,20.1 L60.2,7.9 L104.6,20.1 L104.8,22.3 C104.9,23 106.4,39.9 102,58.6 C96,83.9 81.8,100.2 61,105.8 L60.2,106 L60.2,106 Z M21.8,25.1 C21.5,30.2 21.3,43.3 24.6,57.3 C30,80.1 42,94.2 60.1,99.4 C99.4,88.3 99,36.5 98.4,25.2 L60.1,14.6 L21.8,25.1 L21.8,25.1 Z" id="Shape" fill="#62C3A6"></path>
                            <path d="M60.2,105.1 L59.4,104.9 C38.6,99.4 24.4,83.1 18.4,57.7 C14,39 15.6,22.1 15.6,21.4 L15.8,19.2 L60.2,7 L104.6,19.2 L104.8,21.4 C104.9,22.1 106.4,39 102,57.7 C96,83 81.8,99.3 61,104.9 L60.2,105.1 L60.2,105.1 Z M21.8,24.2 C21.5,29.3 21.3,42.4 24.6,56.4 C30,79.2 42,93.3 60.1,98.5 C99.4,87.4 99,35.6 98.4,24.3 L60.1,13.7 L21.8,24.2 L21.8,24.2 Z" id="Shape" fill="#FFFFFF"></path>
                            <path d="M10.1,14.5 L60.2,0.7 L91.8,9.4 C91.8,9.4 82.1,34.6 69.8,56 C59.8,73.4 37.2,99.6 37.2,99.6 C37.2,99.6 6.3,78.1 10.1,14.5 L10.1,14.5 Z" id="Shape" fill="#FFFFFF" opacity="0.2"></path>
                            <path d="M108.1,85.1 C108.1,85.1 85.6,80.5 59.8,80.5 C34,80.5 11.5,86.9 11.5,86.9 L7.3,56.6 C7.3,56.6 33.3,50.2 59.8,50.2 C86.2,50.2 112.3,54.8 112.3,54.8 L108.1,85.1 L108.1,85.1 Z" id="Shape" fill="#40545E"></path>
                            <g transform="translate(16.000000, 57.000000)" id="Shape" fill="#40545E">
                                <path d="M5.6,11.1 L9.4,10.6 L10.1,16 C10.5,18.8 9.3,20.5 6.6,20.9 C3.9,21.3 2.4,19.9 2,17.1 L0.8,8.2 C0.4,5.5 1.6,3.7 4.3,3.3 C7,2.9 8.5,4.3 8.9,7.1 L9.1,8.8 L6.5,9.1 L6.3,7.3 C6.1,6.1 5.5,5.7 4.7,5.8 C3.8,5.9 3.4,6.5 3.5,7.7 L4.7,17 C4.9,18.2 5.5,18.6 6.3,18.5 C7.2,18.4 7.6,17.9 7.5,16.6 L7.1,13.4 L5.9,13.6 L5.6,11.1 L5.6,11.1 Z"></path>
                                <path d="M13.1,2.5 L14.5,15.8 C14.6,17 15.2,17.4 16.1,17.3 C17,17.2 17.5,16.7 17.3,15.5 L15.9,2.2 L18.5,1.9 L19.9,15 C20.2,17.8 19,19.5 16.3,19.8 C13.6,20.1 12.1,18.6 11.8,15.9 L10.4,2.8 L13.1,2.5 L13.1,2.5 Z"></path>
                                <path d="M30.7,18.3 L28,18.5 L27.3,15.4 L24,15.6 L23.8,18.8 L21.3,19 L22.8,1.5 L26.8,1.2 L30.7,18.3 L30.7,18.3 Z M24.1,13.3 L26.7,13.1 L24.7,4.5 L24.1,13.3 L24.1,13.3 Z"></path>
                                <path d="M37.6,18.1 C37.4,17.7 37.3,17.4 37.3,16 L37.2,13.3 C37.1,11.7 36.6,11.1 35.3,11.2 L34.4,11.2 L34.7,18.2 L32,18.3 L31.2,1 L35.3,0.8 C38.1,0.7 39.4,2 39.5,4.6 L39.6,6 C39.7,7.8 39.1,9 38,9.6 C39.4,10.1 39.9,11.4 40,13.2 L40.1,15.9 C40.1,16.7 40.2,17.4 40.5,18 L37.6,18.1 L37.6,18.1 Z M34,3.3 L34.2,8.6 L35.3,8.6 C36.3,8.6 36.9,8.1 36.9,6.7 L36.8,5 C36.7,3.8 36.3,3.2 35.3,3.3 L34,3.3 L34,3.3 Z"></path>
                                <path d="M50.5,17.9 L47.8,17.9 L47.3,14.8 L44,14.8 L43.5,17.9 L41,17.9 L43.8,0.6 L47.8,0.6 L50.5,17.9 L50.5,17.9 Z M44.3,12.4 L46.9,12.4 L45.6,3.6 L44.3,12.4 L44.3,12.4 Z"></path>
                                <polygon points="54.4 5.5 54 18 51.6 17.9 52.2 0.6 55.6 0.7 58.1 11.2 58.4 0.8 60.8 0.9 60.2 18.2 57.4 18.1"></polygon>
                                <polygon points="62.2 1 70.6 1.5 70.5 4 67.7 3.8 66.9 18.6 64.2 18.4 65 3.6 62.2 3.4"></polygon>
                                <polygon points="74.2 9.1 77.9 9.4 77.7 11.9 74 11.6 73.6 16.7 78.3 17.1 78.1 19.6 70.7 19 72 1.7 79.4 2.3 79.2 4.8 74.5 4.4"></polygon>
                                <polygon points="83.4 9.9 87.1 10.3 86.9 12.8 83.2 12.4 82.7 17.5 87.4 18 87.2 20.5 79.8 19.8 81.5 2.6 88.9 3.3 88.7 5.8 84 5.3"></polygon>
                            </g>
                            <g transform="translate(16.000000, 56.000000)" id="Shape" fill="#FFFFFF">
                                <path d="M5.6,11.2 L9.4,10.7 L10.1,16.1 C10.5,18.8 9.3,20.6 6.6,20.9 C3.9,21.3 2.4,19.9 2,17.1 L0.8,8.2 C0.4,5.5 1.6,3.7 4.3,3.3 C7,3 8.5,4.3 8.9,7.1 L9.1,8.8 L6.5,9.1 L6.3,7.3 C6.1,6.1 5.5,5.7 4.7,5.8 C3.8,5.9 3.4,6.5 3.5,7.7 L4.7,17 C4.9,18.2 5.5,18.6 6.3,18.5 C7.2,18.4 7.6,17.9 7.5,16.6 L7.1,13.4 L5.9,13.6 L5.6,11.2 L5.6,11.2 Z"></path>
                                <path d="M13.1,2.6 L14.5,15.9 C14.6,17.1 15.2,17.5 16.1,17.4 C17,17.3 17.5,16.8 17.3,15.6 L15.9,2.3 L18.5,2 L19.9,15.1 C20.2,17.9 19,19.6 16.3,19.9 C13.6,20.2 12.1,18.7 11.8,16 L10.4,2.9 L13.1,2.6 L13.1,2.6 Z"></path>
                                <path d="M30.7,18.4 L28,18.6 L27.3,15.5 L24,15.7 L23.8,18.9 L21.3,19.1 L22.8,1.6 L26.8,1.3 L30.7,18.4 L30.7,18.4 Z M24.1,13.4 L26.7,13.2 L24.7,4.6 L24.1,13.4 L24.1,13.4 Z"></path>
                                <path d="M37.6,18.1 C37.4,17.7 37.3,17.4 37.3,16 L37.2,13.3 C37.1,11.7 36.6,11.1 35.3,11.2 L34.4,11.2 L34.7,18.2 L32,18.3 L31.2,1 L35.3,0.8 C38.1,0.7 39.4,2 39.5,4.6 L39.6,6 C39.7,7.8 39.1,9 38,9.6 C39.4,10.1 39.9,11.4 40,13.2 L40.1,15.9 C40.1,16.7 40.2,17.4 40.5,18 L37.6,18.1 L37.6,18.1 Z M34,3.4 L34.2,8.7 L35.3,8.7 C36.3,8.7 36.9,8.2 36.9,6.8 L36.8,5.1 C36.7,3.9 36.3,3.3 35.3,3.4 L34,3.4 L34,3.4 Z"></path>
                                <path d="M50.5,18 L47.8,18 L47.3,14.9 L44,14.9 L43.5,18 L41,18 L43.8,0.7 L47.8,0.7 L50.5,18 L50.5,18 Z M44.3,12.5 L46.9,12.5 L45.6,3.7 L44.3,12.5 L44.3,12.5 Z"></path>
                                <polygon points="54.4 5.6 54 18.1 51.6 18 52.2 0.7 55.6 0.8 58.1 11.3 58.4 0.9 60.8 1 60.2 18.3 57.4 18.2"></polygon>
                                <polygon points="62.2 1.1 70.6 1.6 70.5 4.1 67.7 3.9 66.9 18.7 64.2 18.5 65 3.7 62.2 3.5"></polygon>
                                <polygon points="74.2 9.2 77.9 9.5 77.7 12 74 11.7 73.6 16.8 78.3 17.2 78.1 19.7 70.7 19.1 72 1.8 79.4 2.4 79.2 4.9 74.5 4.5"></polygon>
                                <polygon points="83.4 9.9 87.1 10.3 86.9 12.8 83.2 12.4 82.7 17.4 87.4 17.9 87.2 20.4 79.8 19.7 81.5 2.5 88.9 3.2 88.7 5.7 84 5.2"></polygon>
                            </g>
                            <polygon id="Shape" fill="#FFFFFF" points="53.3 21.4 54 22.9 55.6 23.1 54.5 24.3 54.8 25.9 53.3 25.1 51.9 25.9 52.1 24.3 51 23.1 52.6 22.9"></polygon>
                            <polygon id="Shape" fill="#FFFFFF" points="60.4 21.4 61.1 22.9 62.8 23.1 61.6 24.3 61.9 25.9 60.4 25.1 59 25.9 59.2 24.3 58.1 23.1 59.7 22.9"></polygon>
                            <polygon id="Shape" fill="#FFFFFF" points="67.5 21.4 68.2 22.9 69.9 23.1 68.7 24.3 69 25.9 67.5 25.1 66.1 25.9 66.3 24.3 65.2 23.1 66.8 22.9"></polygon>
                            <g transform="translate(55.000000, 82.000000)" fill="#FFFFFF">
                                <g id="SVGID_1_-link">
                                    <path d="M5.5,6.6 C5.7,5.1 4.8,4.5 3.7,4.9 C4,5.8 3.6,6.5 3.1,6.7 C2.4,7 1.5,6.7 1.4,5.8 C1.2,4.1 2.9,2.7 4.8,2.5 C8,2 8.4,5.6 5.5,6.6 L5.5,6.6 L5.5,6.6 Z M8.7,8.7 C8.1,9.4 7.1,9.5 6.4,8 C6.3,7.8 6.3,7.6 6.2,7.4 C10.8,5 9.4,0.6 5.7,1 C3.8,1.2 2.5,2 1.4,3.3 C0.2,4.7 0.1,7 0.9,7.9 C1.5,8.5 2.3,8.7 3.1,8.5 C3,9.3 2.9,9.6 2.6,11.1 C3.1,11 4.1,10.8 4.2,10.8 C4.4,9.4 4.5,8.9 4.7,8 C5.1,10.4 7.4,11.2 8.9,9.1 L8.7,8.7 Z" id="SVGID_1_"></path>
                                </g>
                                <g id="SVGID_3_-link">
                                    <path d="M0.2,11.1 L0.2,0.6" id="SVGID_3_"></path>
                                </g>
                            </g>
                            <g transform="translate(46.000000, 31.000000)" id="Shape">
                                <path d="M3.5,14.8 L2.5,9.1 L2,9.1 L2,14.8 L0,14.8 L0,1.3 L2,1.3 C4.4,1.3 5.4,2.6 5.4,5.2 C5.4,6.5 5.1,7.8 4.3,8.3 L5.6,14.8 L3.5,14.8 L3.5,14.8 Z M1.9,7.3 C2.2,7.3 2.5,7.3 2.8,7 C3.1,6.7 3.3,6.2 3.3,5.3 C3.3,4.3 3.1,3.8 2.8,3.6 C2.5,3.3 2.1,3.3 1.9,3.3 L1.9,7.3 L1.9,7.3 Z" fill="#30B48E"></path>
                                <path d="M6,14.8 L8,1.3 L10.4,1.3 L12.4,14.8 L10.5,14.8 L10.1,12 L8.2,12 L7.8,14.8 L6,14.8 L6,14.8 Z M9.4,5.7 L9.3,5.4 L9.2,5.4 L9.1,5.7 L8.6,10 L10,10 L9.4,5.7 L9.4,5.7 Z" fill="#30B48E"></path>
                                <polygon fill="#30B48E" points="13.4 1.3 15.4 1.3 15.4 14.8 13.4 14.8"></polygon>
                                <path d="M20.2,4.9 C20.2,4.5 20.2,4 20.1,3.6 C20,3.2 19.8,3 19.5,3 C19,3 18.8,3.6 18.8,4.3 C18.8,4.8 19,5.2 19.3,5.8 C19.6,6.3 20,6.8 20.4,7.4 C20.9,8.1 21.3,8.8 21.7,9.5 C22,10.2 22.3,10.9 22.3,11.6 C22.3,12.5 22.2,13.3 21.7,14 C21.3,14.6 20.6,15 19.5,15 C18.2,15 17.5,14.5 17.1,13.8 C16.7,13.1 16.6,12.1 16.6,11.1 L18.5,10.9 C18.5,11.5 18.5,12 18.7,12.5 C18.8,12.9 19.1,13.2 19.5,13.2 C20.1,13.2 20.3,12.6 20.3,11.7 C20.3,11.3 20.1,10.7 19.8,10.2 C19.6,9.9 19.5,9.7 19.3,9.4 C18.9,8.8 18.5,8.2 18.1,7.5 C17.7,6.8 17.3,6.1 17.1,5.4 C17,5.1 16.9,4.7 16.9,4.3 C16.9,3.6 17.1,2.8 17.5,2.2 C17.9,1.6 18.6,1.2 19.5,1.2 C20.7,1.2 21.4,1.7 21.8,2.4 C22.2,3.1 22.3,4 22.3,4.8 L20.2,4.9 L20.2,4.9 Z" fill="#30B48E"></path>
                                <polygon fill="#30B48E" points="23.2 1.3 27.7 1.3 27.7 3.3 25.1 3.3 25.1 6.9 26.9 6.9 26.9 9.1 25.1 9.1 25.1 12.8 27.7 12.8 27.7 14.8 23.2 14.8"></polygon>
                                <g fill="#FFFFFF">
                                    <path d="M3.5,14 L2.5,8.3 L2,8.3 L2,14 L0,14 L0,0.5 L2,0.5 C4.4,0.5 5.4,1.8 5.4,4.4 C5.4,5.7 5.1,7 4.3,7.5 L5.6,14 L3.5,14 L3.5,14 Z M1.9,6.5 C2.2,6.5 2.5,6.5 2.8,6.2 C3.1,5.9 3.3,5.4 3.3,4.5 C3.3,3.5 3.1,3 2.8,2.8 C2.5,2.5 2.1,2.5 1.9,2.5 L1.9,6.5 L1.9,6.5 Z"></path>
                                    <path d="M6,14 L8,0.5 L10.4,0.5 L12.4,14 L10.5,14 L10.1,11.2 L8.2,11.2 L7.9,14 L6,14 L6,14 Z M9.4,4.9 L9.3,4.6 L9.2,4.6 L9.1,4.9 L8.5,9.2 L9.9,9.2 L9.4,4.9 L9.4,4.9 Z"></path>
                                    <polygon points="13.4 0.5 15.4 0.5 15.4 14 13.4 14"></polygon>
                                    <path d="M20.2,4.2 C20.2,3.8 20.2,3.3 20.1,2.9 C20,2.5 19.8,2.3 19.5,2.3 C19,2.3 18.8,2.9 18.8,3.6 C18.8,4.1 19,4.5 19.3,5.1 C19.6,5.6 20,6.1 20.4,6.7 C20.9,7.4 21.3,8.1 21.7,8.8 C22,9.5 22.3,10.2 22.3,10.9 C22.3,11.8 22.2,12.6 21.7,13.3 C21.3,13.9 20.6,14.3 19.5,14.3 C18.2,14.3 17.5,13.8 17.1,13.1 C16.7,12.4 16.6,11.4 16.6,10.4 L18.5,10.2 C18.5,10.8 18.5,11.3 18.7,11.8 C18.8,12.2 19.1,12.5 19.5,12.5 C20.1,12.5 20.3,11.9 20.3,11 C20.3,10.6 20.1,10 19.8,9.5 C19.6,9.2 19.5,9 19.3,8.7 C18.9,8.2 18.5,7.5 18.1,6.8 C17.7,6.1 17.3,5.4 17.1,4.7 C17,4.4 16.9,4 16.9,3.6 C16.9,2.9 17.1,2.1 17.5,1.5 C17.9,0.9 18.6,0.5 19.5,0.5 C20.7,0.5 21.4,1 21.8,1.7 C22.2,2.4 22.3,3.3 22.3,4.1 L20.2,4.2 L20.2,4.2 Z"></path>
                                    <polygon points="23.2 0.5 27.7 0.5 27.7 2.5 25.1 2.5 25.1 6 26.9 6 26.9 8.2 25.1 8.2 25.1 12 27.7 12 27.7 14 23.2 14"></polygon>
                                </g>
                            </g>
                        </g>
                    </g>
                </g>
            </g>
        </g>
    </g>
</svg>