<svg width="192px" height="133px" viewBox="-7 -5 192 133" version="1.1" xmlns="http://www.w3.org/2000/svg" xmlns:xlink="http://www.w3.org/1999/xlink">
  <rect id="Rectangle-193" stroke="none" fill="#000000" fill-rule="evenodd" x="-7" y="-5" width="192" height="133"></rect>
  <g id="Apple_iTunes" stroke="none" stroke-width="1" fill="none" fill-rule="evenodd" transform="translate(25.000000, 43.000000)">
    <g id="Layer_1" fill="#FFFFFF">
      <g id="Group">
        <g id="Shape">
          <path d="M33.1025907,28.3263158 C32.2134715,30.3105263 31.8031088,31.2 30.6404145,32.9105263 C29.0673575,35.3736842 26.8103627,38.3842105 24.0062176,38.3842105 C21.5440415,38.3842105 20.8601036,36.7421053 17.5088083,36.8105263 C14.157513,36.8105263 13.4735751,38.4526316 10.9430052,38.3842105 C8.1388601,38.3842105 6.01865285,35.6473684 4.44559585,33.1842105 C-1.4754864e-13,26.4105263 -0.478756477,18.4052632 2.25699482,14.1631579 C4.24041451,11.1526316 7.31813472,9.37368421 10.1906736,9.37368421 C13.1316062,9.37368421 14.9782383,11.0157895 17.4404145,11.0157895 C19.8341969,11.0157895 21.2704663,9.37368421 24.6901554,9.37368421 C27.2891192,9.37368421 30.0248705,10.8105263 31.9398964,13.2052632 C25.5792746,16.7631579 26.6735751,25.9315789 33.1025907,28.3263158 L33.1025907,28.3263158 L33.1025907,28.3263158 Z"></path>
          <path d="M22.1595855,6.70526316 C23.3906736,5.13157895 24.3481865,2.87368421 24.0062176,0.547368421 C21.9544041,0.684210526 19.6290155,1.98421053 18.1927461,3.69473684 C16.961658,5.2 15.8673575,7.45789474 16.2777202,9.71578947 C18.534715,9.71578947 20.7917098,8.41578947 22.1595855,6.70526316 L22.1595855,6.70526316 L22.1595855,6.70526316 Z"></path>
        </g>
        <g transform="translate(38.984456, 14.368421)" id="Shape">
          <path d="M5.47150259,3.14736842 C5.47150259,4.51578947 4.44559585,5.61052632 2.80414508,5.61052632 C1.23108808,5.61052632 0.205181347,4.51578947 0.205181347,3.14736842 C0.205181347,1.71052632 1.23108808,0.615789474 2.80414508,0.615789474 C4.37720207,0.615789474 5.40310881,1.71052632 5.47150259,3.14736842 L5.47150259,3.14736842 Z M0.27357513,23.6736842 L0.27357513,7.59473684 L5.26632124,7.59473684 L5.26632124,23.6736842 L0.27357513,23.6736842 L0.27357513,23.6736842 Z"></path>
          <polygon points="13.7471503 5.74736842 7.79689119 5.74736842 7.79689119 1.57368421 24.826943 1.57368421 24.826943 5.74736842 18.8082902 5.74736842 18.8082902 23.6736842 13.815544 23.6736842 13.815544 5.74736842"></polygon>
          <path d="M40.6259067,18.5421053 C40.6259067,20.6631579 40.6943005,22.3736842 40.7626943,23.6736842 L36.453886,23.6736842 L36.2487047,21.4157895 L36.1803109,21.4157895 C35.5647668,22.3736842 34.0601036,24.0157895 31.1875648,24.0157895 C27.9046632,24.0157895 25.5108808,21.9631579 25.5108808,17.0368421 L25.5108808,7.59473684 L30.5036269,7.59473684 L30.5036269,16.2157895 C30.5036269,18.5421053 31.2559585,19.9789474 32.9658031,19.9789474 C34.3336788,19.9789474 35.1544041,19.0210526 35.4279793,18.2684211 C35.5647668,17.9947368 35.5647668,17.5842105 35.5647668,17.1736842 L35.5647668,7.59473684 L40.557513,7.59473684 L40.557513,18.5421053 L40.6259067,18.5421053 Z"></path>
          <path d="M44.6611399,12.7263158 C44.6611399,10.7421053 44.5927461,9.03157895 44.5243523,7.59473684 L48.8331606,7.59473684 L49.038342,9.78421053 L49.1067358,9.78421053 C49.7906736,8.75789474 51.4321244,7.25263158 54.0310881,7.25263158 C57.3139896,7.25263158 59.7761658,9.44210526 59.7761658,14.1631579 L59.7761658,23.6736842 L54.7834197,23.6736842 L54.7834197,14.7789474 C54.7834197,12.7263158 54.0310881,11.2894737 52.2528497,11.2894737 C50.8849741,11.2894737 50.0642487,12.2473684 49.7222798,13.1368421 C49.5854922,13.4789474 49.5170984,13.9578947 49.5170984,14.3684211 L49.5170984,23.6052632 L44.5243523,23.6052632 L44.5243523,12.7263158 L44.6611399,12.7263158 Z"></path>
          <path d="M67.7098446,17.2421053 C67.8466321,19.2947368 69.8984456,20.3210526 72.2238342,20.3210526 C73.9336788,20.3210526 75.3015544,20.1157895 76.6694301,19.6368421 L77.3533679,22.9894737 C75.7119171,23.6736842 73.7284974,24.0157895 71.5398964,24.0157895 C66.0683938,24.0157895 62.9906736,20.8 62.9906736,15.8052632 C62.9906736,11.7 65.5212435,7.25263158 71.1295337,7.25263158 C76.3274611,7.25263158 78.3108808,11.2894737 78.3108808,15.2578947 C78.3108808,16.0789474 78.242487,16.9 78.1740933,17.2421053 L67.7098446,17.2421053 L67.7098446,17.2421053 Z M73.5917098,13.8210526 C73.5917098,12.5894737 73.0445596,10.5368421 70.7875648,10.5368421 C68.6673575,10.5368421 67.8466321,12.4526316 67.7098446,13.8210526 L73.5917098,13.8210526 L73.5917098,13.8210526 Z"></path>
          <path d="M81.1834197,19.2947368 C82.0725389,19.8421053 83.9875648,20.5263158 85.492228,20.5263158 C86.9968912,20.5263158 87.6124352,19.9789474 87.6124352,19.1578947 C87.6124352,18.3368421 87.1336788,17.9263158 85.2186528,17.3105263 C81.9357513,16.2157895 80.6362694,14.3684211 80.6362694,12.5210526 C80.6362694,9.51052632 83.1668394,7.25263158 87.2020725,7.25263158 C89.0487047,7.25263158 90.7585492,7.66315789 91.7160622,8.14210526 L90.826943,11.5631579 C90.0746114,11.1526316 88.7067358,10.6736842 87.3388601,10.6736842 C86.107772,10.6736842 85.4238342,11.1526316 85.4238342,11.9736842 C85.4238342,12.7263158 86.0393782,13.1368421 88.0227979,13.8210526 C91.1005181,14.8473684 92.3316062,16.4210526 92.4,18.7473684 C92.4,21.7578947 90.0062176,23.9473684 85.4238342,23.9473684 C83.3036269,23.9473684 81.4569948,23.4684211 80.2259067,22.7842105 L81.1834197,19.2947368 L81.1834197,19.2947368 Z"></path>
        </g>
      </g>
    </g>
  </g>
</svg>
