<?xml version="1.0" encoding="UTF-8" standalone="no"?>
<svg width="192px" height="132px" viewBox="0 0 192 132" version="1.1" xmlns="http://www.w3.org/2000/svg" xmlns:xlink="http://www.w3.org/1999/xlink">
    <!-- Generator: Sketch 3.8.1 (29687) - http://www.bohemiancoding.com/sketch -->
    <title>Lowe's</title>
    <desc>Created with Sketch.</desc>
    <defs></defs>
    <g id="Page-1" stroke="none" stroke-width="1" fill="none" fill-rule="evenodd">
        <g id="lowes" fill="#004792">
            <rect id="Rectangle-path" x="0" y="0" width="192" height="133"></rect>
        </g>
        <g id="Lowe's" fill="#FFFFFF">
            <path d="M58.872,75.984 L58.872,72.484 L50.976,72.484 L50.976,57.308 L47,57.308 L47,75.984 L58.872,75.984 Z M69.736,76.32 C75.392,76.32 79.508,72.288 79.508,66.66 C79.508,61.032 75.392,57 69.736,57 C64.108,57 59.992,61.032 59.992,66.66 C59.992,72.288 64.108,76.32 69.736,76.32 L69.736,76.32 Z M69.736,72.792 C66.292,72.792 64.08,70.132 64.08,66.66 C64.08,63.16 66.292,60.528 69.736,60.528 C73.18,60.528 75.42,63.16 75.42,66.66 C75.42,70.132 73.18,72.792 69.736,72.792 L69.736,72.792 Z M100.256,75.984 L105.576,57.308 L101.096,57.308 L97.848,70.804 L94.32,57.308 L91.212,57.308 L87.656,70.804 L84.38,57.308 L79.928,57.308 L85.276,75.984 L89.504,75.984 L92.752,63.16 L96.028,75.984 L100.256,75.984 Z M120.668,75.984 L120.668,72.484 L111.428,72.484 L111.428,68.256 L120.472,68.256 L120.472,64.756 L111.428,64.756 L111.428,60.808 L120.668,60.808 L120.668,57.308 L107.452,57.308 L107.452,75.984 L120.668,75.984 Z M127.948,59.884 C127.948,58.064 126.744,57.028 125.428,57.028 C124.252,57.028 123.244,58.036 123.244,59.268 C123.244,60.444 124.084,61.284 125.148,61.284 C125.344,61.284 125.596,61.228 125.68,61.172 C125.456,62.18 124.42,63.356 123.524,63.832 L125.064,65.092 C126.772,63.86 127.948,61.984 127.948,59.884 L127.948,59.884 Z M137.552,76.32 C142.592,76.32 145.028,73.744 145.028,70.328 C145.028,63.356 134.304,65.344 134.304,62.376 C134.304,61.256 135.256,60.5 136.964,60.5 C138.868,60.5 140.884,61.144 142.396,62.544 L144.608,59.632 C142.76,57.924 140.296,57.028 137.328,57.028 C132.932,57.028 130.244,59.604 130.244,62.712 C130.244,69.74 140.996,67.472 140.996,70.776 C140.996,71.84 139.932,72.848 137.748,72.848 C135.172,72.848 133.128,71.7 131.812,70.328 L129.656,73.352 C131.392,75.116 133.968,76.32 137.552,76.32 L137.552,76.32 Z" id="LOWE’S"></path>
        </g>
    </g>
</svg>