<?xml version="1.0" encoding="UTF-8" standalone="no"?>
<svg width="192px" height="132px" viewBox="0 0 192 132" version="1.1" xmlns="http://www.w3.org/2000/svg" xmlns:xlink="http://www.w3.org/1999/xlink">
    <!-- Generator: Sketch 3.8.2 (29753) - http://www.bohemiancoding.com/sketch -->
    <title>TJMaxx</title>
    <desc>Created with Sketch.</desc>
    <defs></defs>
    <g id="Page-1" stroke="none" stroke-width="1" fill="none" fill-rule="evenodd">
        <g id="TJmaxx" fill="#CE102D">
            <rect id="Rectangle-path" x="0" y="0" width="192" height="133"></rect>
        </g>
        <g id="TJMaxx" fill="#FFFFFF">
            <g id="TJ_Maxx" transform="translate(27.000000, 50.000000)">
                <polyline id="Fill-2" points="120.976741 1.38071473 112.323041 1.38071473 110.159616 4.06673518 118.813316 4.06673518 120.976741 1.38071473"></polyline>
                <path d="M133.866215,4.90936747 C133.060262,4.90936747 132.407548,5.51689495 132.407548,6.25827266 C132.407548,7.01629496 133.060262,7.62382244 133.866215,7.62382244 C134.667109,7.62382244 135.316209,7.01629496 135.316209,6.25827266 C135.316209,5.51689495 134.667109,4.90936747 133.866215,4.90936747 L133.866215,4.90936747 Z M133.866215,7.35820255 C133.208442,7.35820255 132.683668,6.87759006 132.683668,6.25827266 C132.683668,5.65906748 133.208442,5.17429384 133.866215,5.17429384 C134.515315,5.17429384 135.040088,5.65906748 135.040088,6.25827266 C135.040088,6.87759006 134.515315,7.35820255 133.866215,7.35820255 L133.866215,7.35820255 Z" id="Fill-3"></path>
                <path d="M134.611451,5.90526868 C134.611451,5.77835369 134.551457,5.64380994 134.431467,5.57792511 C134.307141,5.5127338 134.171249,5.50510503 134.034634,5.50510503 L133.32554,5.50510503 L133.32554,7.02392373 L133.566242,7.02392373 L133.566242,6.32415749 L133.850313,6.32415749 L134.315092,7.02392373 L134.591935,7.02392373 L134.098966,6.32415749 C134.387375,6.31652872 134.611451,6.20487127 134.611451,5.90526868 L134.611451,5.90526868 Z M133.830074,6.13551882 L133.566242,6.13551882 L133.566242,5.67779264 L133.986928,5.67779264 C134.190765,5.67779264 134.371472,5.7048401 134.371472,5.90110753 C134.371472,6.17435619 134.058488,6.13551882 133.830074,6.13551882 L133.830074,6.13551882 Z" id="Fill-4"></path>
                <path d="M22.4530759,14.4640548 C22.4530759,12.5568623 20.8418916,11.0103027 18.8541138,11.0103027 C16.866336,11.0103027 15.2544289,12.5568623 15.2544289,14.4640548 C15.2544289,16.3712472 16.866336,17.9171133 18.8541138,17.9171133 C20.8418916,17.9171133 22.4530759,16.3712472 22.4530759,14.4640548" id="Fill-5"></path>
                <path d="M34.7136895,11.0103027 C32.7259116,11.0103027 31.1140045,12.5568623 31.1140045,14.4640548 C31.1140045,16.3712472 32.7259116,17.9171133 34.7136895,17.9171133 C36.7014673,17.9171133 38.3133744,16.3712472 38.3133744,14.4640548 C38.3133744,12.5568623 36.7014673,11.0103027 34.7136895,11.0103027" id="Fill-6"></path>
                <polyline id="Fill-7" points="20.6807009 1.38487587 0.997363583 1.38487587 0.997363583 7.16401568 7.53028572 7.16401568 7.53028572 21.8570261 14.1477788 21.8570261 14.1477788 7.16401568 20.6807009 7.16401568 20.6807009 1.38487587"></polyline>
                <path d="M23.5467151,1.44798661 L23.5467151,21.0657146 C23.5467151,23.5076145 22.2752601,24.4834035 18.7124395,24.4834035 L18.7124395,30.8381686 C25.0400784,30.8381686 30.1707136,27.1375218 30.1707136,21.0657146 L30.1656538,1.44798661 L23.5467151,1.44798661" id="Fill-8"></path>
                <path d="M62.2223659,1.0970632 C59.679456,1.0970632 57.3772479,2.08672269 55.7104058,3.6852967 C54.0442866,2.08672269 51.6994316,1.0970632 49.1565216,1.0970632 C44.0707018,1.0970632 39.3542471,5.05362057 39.3542471,9.93256556 L39.3542471,22.5089392 L45.9327074,22.5089392 L45.947164,9.93256556 C45.947164,8.23204344 47.3841467,6.8533167 49.1565216,6.8533167 C50.9288966,6.8533167 52.3658793,8.23204344 52.3658793,9.93256556 L52.3658793,22.5089392 L58.9978289,22.5089392 L59.0122855,9.93256556 C59.0122855,8.23204344 60.4492681,6.8533167 62.2223659,6.8533167 C63.9947409,6.8533167 65.4317236,8.23204344 65.4317236,9.93256556 L65.4244953,22.5089392 L72.0246404,22.5089392 L72.0246404,9.93256556 C72.0246404,5.05362057 67.307463,1.0970632 62.2223659,1.0970632" id="Fill-9"></path>
                <polyline id="Fill-10" points="124.533779 14.1159054 131.872655 4.91699624 123.557961 4.91699624 120.376794 8.86523132 117.194904 4.91699624 108.371338 4.91699624 115.922726 14.4002505 107.43889 25.0638835 116.049943 25.0638835 120.376794 19.406804 129.879094 31.2501222 138.277636 31.2501222 124.533779 14.1159054"></polyline>
                <path d="M106.487648,4.11320133 L107.590684,4.11320133 L105.469906,1.42718087 L97.027994,1.42718087 L104.536734,10.8292928 L97.027994,20.1897932 L97.027994,1.42718087 L90.410501,1.42718087 L90.410501,2.3246016 C88.7161915,1.39250464 86.7768431,0.859877814 84.6835324,0.859877814 C78.2893933,0.859877814 73.1052688,5.83314213 73.1052688,11.9687535 C73.1052688,18.1036714 78.2893933,23.0776293 84.6835324,23.0776293 C86.768892,23.0776293 88.7255882,22.4673277 90.4155608,21.5414725 L90.410501,22.5096327 L103.857276,22.5096327 L108.820938,16.2013337 L111.047972,18.9483843 L114.759695,14.4106534 L106.487648,4.11320133 L106.487648,4.11320133 Z M84.6835324,17.0335631 C81.7683659,17.0335631 79.4047174,14.7657379 79.4047174,11.9687535 C79.4047174,9.17107564 81.7683659,6.90325046 84.6835324,6.90325046 C87.5994217,6.90325046 89.9630703,9.17107564 89.9630703,11.9687535 C89.9630703,14.7657379 87.5994217,17.0335631 84.6835324,17.0335631 L84.6835324,17.0335631 Z" id="Fill-11"></path>
            </g>
        </g>
    </g>
</svg>